<?xml version="1.0" encoding="utf-8"?>
<!-- Generator: Adobe Illustrator 23.0.4, SVG Export Plug-In . SVG Version: 6.00 Build 0)  -->
<svg version="1.1" xmlns="http://www.w3.org/2000/svg" xmlns:xlink="http://www.w3.org/1999/xlink" x="0px" y="0px"
	 viewBox="0 0 702.24 700.33" style="enable-background:new 0 0 702.24 700.33;" xml:space="preserve">
<style type="text/css">
	.st0{fill:#FF1EC8;}
	.st1{fill:#FFFFFF;}
</style>
<g id="Layer_2">
</g>
<g id="Layer_1">
	<g>
		<circle class="st0" cx="351.12" cy="350.17" r="337.65"/>
		<path class="st1" d="M473.47,351.22l-18.94-17.11c-20.53-18.7-33.02-35.25-33.02-65.79c0-36.06,16.79-60.86,54.42-79.37v-11.81
			c-24.83-15.16-56.96-24.6-92.06-24.6c-90.85,0-135.5,42.32-135.5,138.18v8.02h-87.79v22.78h87.79v30.86c0,4.91,0,9.8,0,14.69
			h-87.79v22.78h87.78c-0.04,36.16-0.22,71.82-0.9,107.14l-52.38,5.16v17.91h51.87h23.86h16.66c-1.12-42.41-1.36-85.72-1.41-130.21
			h45.34v-22.78h-45.35c0-4.89,0-9.77,0-14.69V321.5h45.36v-22.78h-45.36v-8.74c0-84.54,27.8-115.6,98.74-115.6
			c27.05,0,47.76,3.84,68.74,10.13c-42.33,19.96-65.36,53.4-65.36,95.28c0,35.2,16.09,61.27,46.47,87.84l17.51,15.33
			c22.82,20.44,35.64,37.42,35.64,63.41c0,34.57-24.42,60.93-63.62,60.93c-13.73,0-24.02-2.39-36.39-9.15l-8.05-64.97h-20.79
			l-2.86,71.35c17.83,15.16,42.49,23.19,70.98,23.19c63.6,0,94.62-46.11,94.62-89.63C521.66,402.27,505.46,379.91,473.47,351.22z"/>
	</g>
</g>
</svg>
